<svg xmlns="http://www.w3.org/2000/svg" width="1024" height="1024" viewBox="0 0 1024 1024" version="1.1"><path d="M 510.747 313.237 C 509.173 314.427, 406.580 518.914, 407.231 519.565 C 407.548 519.881, 431.166 472.938, 480.970 373.006 C 497.003 340.834, 510.803 314.130, 511.636 313.664 C 512.469 313.198, 513.399 313.065, 513.702 313.369 C 514.006 313.673, 518.605 322.827, 523.922 333.711 C 534.144 354.634, 535.970 358.112, 535.889 356.500 C 535.792 354.586, 514.493 312.602, 513.460 312.289 C 512.887 312.115, 511.667 312.542, 510.747 313.237 M 540.109 366.500 C 540.109 367.050, 549.960 387.075, 562 411 C 574.040 434.925, 583.891 454.050, 583.891 453.500 C 583.891 452.950, 574.040 432.925, 562 409 C 549.960 385.075, 540.109 365.950, 540.109 366.500 M 247.394 376.416 C 247.095 377.194, 247.042 379.107, 247.276 380.666 C 247.633 383.049, 247.724 382.904, 247.850 379.750 C 248.146 372.343, 249.747 373.544, 285.494 408 C 293.197 415.425, 308.275 429.798, 319 439.940 C 329.725 450.082, 343.450 463.132, 349.500 468.940 C 355.550 474.748, 367.925 486.460, 377 494.966 C 386.075 503.472, 393.738 510.672, 394.029 510.966 C 398 514.975, 405 521.297, 405 520.875 C 405 520.366, 383.404 499.746, 335.025 454.063 C 324.286 443.923, 309.650 429.959, 302.500 423.033 C 272.547 394.015, 251.712 375, 249.870 375 C 248.807 375, 247.693 375.637, 247.394 376.416 M 767.239 379.250 C 757.006 388.472, 676.356 464.247, 652.500 487.053 C 648.100 491.259, 638.538 500.238, 631.250 507.007 C 623.962 513.775, 618 519.483, 618 519.691 C 618 520.517, 621.976 517.880, 623.199 516.242 C 623.914 515.284, 631.025 508.461, 639 501.080 C 653.714 487.462, 665.657 476.148, 685.500 457.027 C 691.550 451.197, 702.575 440.822, 710 433.970 C 717.425 427.118, 731.605 413.859, 741.510 404.506 C 771.470 376.217, 771.905 375.835, 773.752 376.202 C 775.974 376.644, 775.753 380.131, 772.443 396.816 C 771.099 403.590, 770.045 409.890, 770.100 410.816 C 770.215 412.755, 773.360 398.441, 775.529 386.105 C 776.628 379.853, 776.718 377.365, 775.880 376.355 C 774.048 374.148, 772.223 374.759, 767.239 379.250 M 248 384.186 C 248 384.841, 259.995 444.031, 268.024 483 C 271.368 499.225, 275.978 521.950, 278.271 533.500 C 280.563 545.050, 282.571 553.825, 282.734 553 C 283.009 551.601, 279.952 536.264, 257.535 426.567 C 250.295 391.133, 248 380.934, 248 384.186 M 768.605 416.500 C 767.692 421.571, 756.868 477.380, 748.377 520.798 C 744.796 539.112, 742.020 554.561, 742.209 555.128 C 742.511 556.032, 747.229 532.887, 754.569 494.500 C 755.831 487.900, 759.835 467.247, 763.467 448.605 C 767.098 429.963, 769.902 414.213, 769.697 413.605 C 769.492 412.997, 769.001 414.300, 768.605 416.500 M 590.031 467.750 C 590.075 468.799, 594.989 476.679, 594.995 475.710 C 595.002 474.600, 591.062 467, 590.480 467 C 590.216 467, 590.014 467.337, 590.031 467.750 M 595 477.362 C 595 478.447, 600.968 490, 601.529 490 C 601.804 490, 600.619 487.188, 598.896 483.750 C 595.630 477.234, 595 476.202, 595 477.362 M 603 493.358 C 603 494.445, 609.967 508, 610.525 508 C 610.800 508, 609.392 504.738, 607.395 500.750 C 603.650 493.269, 603 492.176, 603 493.358 M 283 555.673 C 283 559.222, 300.145 641.380, 301.387 643.782 C 304.580 649.957, 305.291 650.025, 363.770 649.771 L 416.500 649.542 362.455 649.021 C 313.201 648.546, 308.173 648.345, 305.740 646.750 C 304.272 645.788, 302.599 644.119, 302.023 643.042 C 301.446 641.965, 297.115 621.828, 292.398 598.292 C 284.739 560.085, 283 552.197, 283 555.673 M 738.073 574.073 C 736.238 583.421, 734.928 591.262, 735.163 591.496 C 735.398 591.731, 737.091 584.275, 738.927 574.927 C 740.762 565.579, 742.072 557.738, 741.837 557.504 C 741.602 557.269, 739.909 564.725, 738.073 574.073 M 732.148 604.646 C 727.784 627.311, 724.956 640.515, 723.933 643 C 723.368 644.375, 721.689 646.400, 720.202 647.500 C 717.537 649.472, 715.521 649.507, 574.500 650.013 L 431.500 650.527 574.677 650.513 L 717.854 650.500 720.677 648.410 C 722.230 647.261, 724.054 645.192, 724.732 643.812 C 726.152 640.919, 735.303 595.409, 734.779 593.838 C 734.588 593.263, 733.404 598.127, 732.148 604.646 M 305.314 680.950 C 303.561 682.019, 301.649 683.787, 301.064 684.881 C 299.341 688.100, 299.671 720.463, 301.462 723.926 C 304.821 730.423, 290.166 730, 512.052 730 C 728.976 730, 717.590 730.278, 721.369 724.883 C 723.731 721.512, 723.789 687.572, 721.439 684.217 C 717.546 678.658, 731.330 679, 511.300 679.004 C 312.255 679.007, 308.441 679.043, 305.314 680.950 M 304.400 683.400 L 301 686.800 301 704.265 C 301 720.346, 301.162 721.936, 303.045 724.331 C 304.171 725.761, 306.758 727.394, 308.795 727.960 C 311.277 728.649, 378.619 728.991, 512.849 728.994 C 731.947 729.001, 718.143 729.371, 720.861 723.405 C 721.571 721.848, 722 714.475, 722 703.853 L 722 686.800 718.600 683.400 L 715.200 680 511.500 680 L 307.800 680 304.400 683.400" stroke="none" fill="#cf8e30" fill-rule="evenodd"/><path d="M 509.875 312.500 C 509.806 312.775, 509.637 313.450, 509.500 314 C 509.363 314.550, 509.194 315.477, 509.125 316.059 C 509.056 316.641, 508.555 316.843, 508.011 316.507 C 507.424 316.144, 507.290 316.593, 507.681 317.612 C 508.102 318.708, 507.951 319.088, 507.263 318.663 C 506.566 318.232, 506.386 318.759, 506.751 320.155 C 507.135 321.623, 506.949 322.086, 506.169 321.604 C 505.402 321.131, 505.241 321.464, 505.681 322.612 C 506.164 323.868, 505.985 324.109, 505.015 323.510 C 504.147 322.973, 503.930 323.078, 504.386 323.815 C 505.216 325.158, 500.592 334.258, 499.589 333.256 C 499.207 332.874, 499.220 333.409, 499.617 334.445 C 500.117 335.746, 499.982 336.107, 499.181 335.612 C 498.401 335.130, 498.238 335.456, 498.681 336.612 C 499.125 337.769, 498.962 338.095, 498.181 337.612 C 497.401 337.130, 497.238 337.456, 497.681 338.612 C 498.125 339.769, 497.962 340.095, 497.181 339.612 C 496.401 339.130, 496.238 339.456, 496.681 340.612 C 497.125 341.769, 496.962 342.095, 496.181 341.612 C 495.401 341.130, 495.238 341.456, 495.681 342.612 C 496.125 343.769, 495.962 344.095, 495.181 343.612 C 494.401 343.130, 494.238 343.456, 494.681 344.612 C 495.125 345.769, 494.962 346.095, 494.181 345.612 C 493.401 345.130, 493.238 345.456, 493.681 346.612 C 494.125 347.769, 493.962 348.095, 493.181 347.612 C 492.401 347.130, 492.238 347.456, 492.681 348.612 C 493.125 349.769, 492.962 350.095, 492.181 349.612 C 491.401 349.130, 491.238 349.456, 491.681 350.612 C 492.125 351.769, 491.962 352.095, 491.181 351.612 C 490.401 351.130, 490.238 351.456, 490.681 352.612 C 491.125 353.769, 490.962 354.095, 490.181 353.612 C 489.401 353.130, 489.238 353.456, 489.681 354.612 C 490.125 355.769, 489.962 356.095, 489.181 355.612 C 488.401 355.130, 488.238 355.456, 488.681 356.612 C 489.125 357.769, 488.962 358.095, 488.181 357.612 C 487.401 357.130, 487.238 357.456, 487.681 358.612 C 488.125 359.769, 487.962 360.095, 487.181 359.612 C 486.401 359.130, 486.238 359.456, 486.681 360.612 C 487.125 361.769, 486.962 362.095, 486.181 361.612 C 485.401 361.130, 485.238 361.456, 485.681 362.612 C 486.125 363.769, 485.962 364.095, 485.181 363.612 C 484.401 363.130, 484.238 363.456, 484.681 364.612 C 485.125 365.769, 484.962 366.095, 484.181 365.612 C 483.401 365.130, 483.238 365.456, 483.681 366.612 C 484.125 367.769, 483.962 368.095, 483.181 367.612 C 482.401 367.130, 482.238 367.456, 482.681 368.612 C 483.125 369.769, 482.962 370.095, 482.181 369.612 C 481.401 369.130, 481.238 369.456, 481.681 370.612 C 482.125 371.769, 481.962 372.095, 481.181 371.612 C 480.401 371.130, 480.238 371.456, 480.681 372.612 C 481.125 373.769, 480.962 374.095, 480.181 373.612 C 479.401 373.130, 479.238 373.456, 479.681 374.612 C 480.125 375.769, 479.962 376.095, 479.181 375.612 C 478.401 375.130, 478.238 375.456, 478.681 376.612 C 479.125 377.769, 478.962 378.095, 478.181 377.612 C 477.401 377.130, 477.238 377.456, 477.681 378.612 C 478.125 379.769, 477.962 380.095, 477.181 379.612 C 476.401 379.130, 476.238 379.456, 476.681 380.612 C 477.125 381.769, 476.962 382.095, 476.181 381.612 C 475.401 381.130, 475.238 381.456, 475.681 382.612 C 476.125 383.769, 475.962 384.095, 475.181 383.612 C 474.401 383.130, 474.238 383.456, 474.681 384.612 C 475.125 385.769, 474.962 386.095, 474.181 385.612 C 473.401 385.130, 473.238 385.456, 473.681 386.612 C 474.125 387.769, 473.962 388.095, 473.181 387.612 C 472.401 387.130, 472.238 387.456, 472.681 388.612 C 473.125 389.769, 472.962 390.095, 472.181 389.612 C 471.401 389.130, 471.238 389.456, 471.681 390.612 C 472.125 391.769, 471.962 392.095, 471.181 391.612 C 470.401 391.130, 470.238 391.456, 470.681 392.612 C 471.125 393.769, 470.962 394.095, 470.181 393.612 C 469.401 393.130, 469.238 393.456, 469.681 394.612 C 470.125 395.769, 469.962 396.095, 469.181 395.612 C 468.401 395.130, 468.238 395.456, 468.681 396.612 C 469.125 397.769, 468.962 398.095, 468.181 397.612 C 467.401 397.130, 467.238 397.456, 467.681 398.612 C 468.125 399.769, 467.962 400.095, 467.181 399.612 C 466.401 399.130, 466.238 399.456, 466.681 400.612 C 467.125 401.769, 466.962 402.095, 466.181 401.612 C 465.401 401.130, 465.238 401.456, 465.681 402.612 C 466.125 403.769, 465.962 404.095, 465.181 403.612 C 464.401 403.130, 464.238 403.456, 464.681 404.612 C 465.125 405.769, 464.962 406.095, 464.181 405.612 C 463.401 405.130, 463.238 405.456, 463.681 406.612 C 464.125 407.769, 463.962 408.095, 463.181 407.612 C 462.401 407.130, 462.238 407.456, 462.681 408.612 C 463.125 409.769, 462.962 410.095, 462.181 409.612 C 461.401 409.130, 461.238 409.456, 461.681 410.612 C 462.125 411.769, 461.962 412.095, 461.181 411.612 C 460.401 411.130, 460.238 411.456, 460.681 412.612 C 461.125 413.769, 460.962 414.095, 460.181 413.612 C 459.401 413.130, 459.238 413.456, 459.681 414.612 C 460.125 415.769, 459.962 416.095, 459.181 415.612 C 458.401 415.130, 458.238 415.456, 458.681 416.612 C 459.125 417.769, 458.962 418.095, 458.181 417.612 C 457.401 417.130, 457.238 417.456, 457.681 418.612 C 458.125 419.769, 457.962 420.095, 457.181 419.612 C 456.401 419.130, 456.238 419.456, 456.681 420.612 C 457.125 421.769, 456.962 422.095, 456.181 421.612 C 455.401 421.130, 455.238 421.456, 455.681 422.612 C 456.125 423.769, 455.962 424.095, 455.181 423.612 C 454.401 423.130, 454.238 423.456, 454.681 424.612 C 455.125 425.769, 454.962 426.095, 454.181 425.612 C 453.401 425.130, 453.238 425.456, 453.681 426.612 C 454.125 427.769, 453.962 428.095, 453.181 427.612 C 452.401 427.130, 452.238 427.456, 452.681 428.612 C 453.125 429.769, 452.962 430.095, 452.181 429.612 C 451.438 429.152, 451.225 429.424, 451.588 430.370 C 452.299 432.222, 450.223 436.256, 448.961 435.476 C 448.431 435.148, 448.309 435.643, 448.681 436.612 C 449.125 437.769, 448.962 438.095, 448.181 437.612 C 447.401 437.130, 447.238 437.456, 447.681 438.612 C 448.125 439.769, 447.962 440.095, 447.181 439.612 C 446.401 439.130, 446.238 439.456, 446.681 440.612 C 447.125 441.769, 446.962 442.095, 446.181 441.612 C 445.401 441.130, 445.238 441.456, 445.681 442.612 C 446.125 443.769, 445.962 444.095, 445.181 443.612 C 444.401 443.130, 444.238 443.456, 444.681 444.612 C 445.125 445.769, 444.962 446.095, 444.181 445.612 C 443.401 445.130, 443.238 445.456, 443.681 446.612 C 444.125 447.769, 443.962 448.095, 443.181 447.612 C 442.401 447.130, 442.238 447.456, 442.681 448.612 C 443.125 449.769, 442.962 450.095, 442.181 449.612 C 441.401 449.130, 441.238 449.456, 441.681 450.612 C 442.125 451.769, 441.962 452.095, 441.181 451.612 C 440.401 451.130, 440.238 451.456, 440.681 452.612 C 441.125 453.769, 440.962 454.095, 440.181 453.612 C 439.401 453.130, 439.238 453.456, 439.681 454.612 C 440.125 455.769, 439.962 456.095, 439.181 455.612 C 438.401 455.130, 438.238 455.456, 438.681 456.612 C 439.125 457.769, 438.962 458.095, 438.181 457.612 C 437.401 457.130, 437.238 457.456, 437.681 458.612 C 438.125 459.769, 437.962 460.095, 437.181 459.612 C 436.401 459.130, 436.238 459.456, 436.681 460.612 C 437.125 461.769, 436.962 462.095, 436.181 461.612 C 435.401 461.130, 435.238 461.456, 435.681 462.612 C 436.125 463.769, 435.962 464.095, 435.181 463.612 C 434.401 463.130, 434.238 463.456, 434.681 464.612 C 435.125 465.769, 434.962 466.095, 434.181 465.612 C 433.401 465.130, 433.238 465.456, 433.681 466.612 C 434.125 467.769, 433.962 468.095, 433.181 467.612 C 432.401 467.130, 432.238 467.456, 432.681 468.612 C 433.125 469.769, 432.962 470.095, 432.181 469.612 C 431.401 469.130, 431.238 469.456, 431.681 470.612 C 432.125 471.769, 431.962 472.095, 431.181 471.612 C 430.401 471.130, 430.238 471.456, 430.681 472.612 C 431.125 473.769, 430.962 474.095, 430.181 473.612 C 429.401 473.130, 429.238 473.456, 429.681 474.612 C 430.125 475.769, 429.962 476.095, 429.181 475.612 C 428.401 475.130, 428.238 475.456, 428.681 476.612 C 429.125 477.769, 428.962 478.095, 428.181 477.612 C 427.401 477.130, 427.238 477.456, 427.681 478.612 C 428.125 479.769, 427.962 480.095, 427.181 479.612 C 426.401 479.130, 426.238 479.456, 426.681 480.612 C 427.125 481.769, 426.962 482.095, 426.181 481.612 C 425.401 481.130, 425.238 481.456, 425.681 482.612 C 426.125 483.769, 425.962 484.095, 425.181 483.612 C 424.401 483.130, 424.238 483.456, 424.681 484.612 C 425.125 485.769, 424.962 486.095, 424.181 485.612 C 423.401 485.130, 423.238 485.456, 423.681 486.612 C 424.125 487.769, 423.962 488.095, 423.181 487.612 C 422.401 487.130, 422.238 487.456, 422.681 488.612 C 423.125 489.769, 422.962 490.095, 422.181 489.612 C 421.401 489.130, 421.238 489.456, 421.681 490.612 C 422.125 491.769, 421.962 492.095, 421.181 491.612 C 420.401 491.130, 420.238 491.456, 420.681 492.612 C 421.125 493.769, 420.962 494.095, 420.181 493.612 C 419.401 493.130, 419.238 493.456, 419.681 494.612 C 420.125 495.769, 419.962 496.095, 419.181 495.612 C 418.401 495.130, 418.238 495.456, 418.681 496.612 C 419.125 497.769, 418.962 498.095, 418.181 497.612 C 417.401 497.130, 417.238 497.456, 417.681 498.612 C 418.125 499.769, 417.962 500.095, 417.181 499.612 C 416.401 499.130, 416.238 499.456, 416.681 500.612 C 417.125 501.769, 416.962 502.095, 416.181 501.612 C 415.401 501.130, 415.238 501.456, 415.681 502.612 C 416.125 503.769, 415.962 504.095, 415.181 503.612 C 414.401 503.130, 414.238 503.456, 414.681 504.612 C 415.125 505.769, 414.962 506.095, 414.181 505.612 C 413.401 505.130, 413.238 505.456, 413.681 506.612 C 414.125 507.769, 413.962 508.095, 413.181 507.612 C 412.401 507.130, 412.238 507.456, 412.681 508.612 C 413.125 509.769, 412.962 510.095, 412.181 509.612 C 411.401 509.130, 411.238 509.456, 411.681 510.612 C 412.125 511.769, 411.962 512.095, 411.181 511.612 C 410.401 511.130, 410.238 511.456, 410.681 512.612 C 411.125 513.769, 410.962 514.095, 410.181 513.612 C 409.401 513.130, 409.238 513.456, 409.681 514.612 C 410.164 515.868, 409.985 516.109, 409.015 515.510 C 408.137 514.967, 407.930 515.078, 408.400 515.838 C 408.789 516.468, 408.648 517.775, 408.085 518.742 C 407.521 519.709, 407.047 520.107, 407.030 519.628 C 407.014 519.148, 406.393 519.259, 405.652 519.874 C 404.619 520.731, 403.858 520.485, 402.402 518.825 C 401.356 517.632, 401.132 517.028, 401.905 517.483 C 402.860 518.045, 403.078 517.934, 402.585 517.138 C 402.187 516.494, 401.537 516.168, 401.139 516.414 C 400.741 516.660, 396.583 513.180, 391.898 508.680 C 387.214 504.181, 385.433 502.300, 387.940 504.500 L 392.500 508.500 388.084 503.793 C 385.656 501.205, 383.384 499.263, 383.036 499.478 C 382.688 499.693, 378.792 496.411, 374.378 492.185 C 369.965 487.958, 368.187 486.075, 370.427 488 L 374.500 491.500 370.587 487.291 C 368.436 484.977, 366.358 483.279, 365.971 483.518 C 364.893 484.184, 361.892 480.452, 362.748 479.509 C 363.162 479.052, 362.967 478.985, 362.316 479.358 C 361.042 480.088, 350.741 471.229, 351.478 470.036 C 352.008 469.178, 343.466 460.642, 342.579 461.144 C 341.521 461.743, 324.939 445.908, 325.564 444.897 C 325.886 444.376, 325.768 444.074, 325.303 444.225 C 324.136 444.605, 314.915 436.947, 315.465 436.056 C 315.710 435.660, 313.680 433.140, 310.955 430.456 C 308.230 427.771, 306 425.943, 306 426.394 C 306 426.844, 302.402 423.968, 298.004 420.004 C 293.606 416.039, 290.215 412.460, 290.469 412.051 C 290.960 411.256, 285.469 405.567, 284.775 406.152 C 284.549 406.344, 280.339 402.675, 275.419 398 C 270.500 393.325, 267.831 390.625, 269.488 392 L 272.500 394.500 269.597 391.286 C 268 389.518, 266.404 388.251, 266.049 388.470 C 265.694 388.689, 262.275 385.867, 258.452 382.198 C 254.628 378.529, 252.625 376.421, 254 377.513 L 256.500 379.500 254.725 377.393 C 253.539 375.986, 252.160 375.438, 250.571 375.742 C 248.635 376.112, 248.122 376.925, 247.819 380.098 C 247.615 382.244, 247.845 384, 248.332 384 C 248.819 384, 248.929 385.238, 248.578 386.750 C 248.075 388.913, 248.177 389.180, 249.052 388 C 249.910 386.845, 250.038 387.419, 249.611 390.500 C 249.199 393.471, 249.328 394.114, 250.111 393 C 250.894 391.886, 251.023 392.529, 250.611 395.500 C 250.199 398.471, 250.328 399.114, 251.111 398 C 251.894 396.886, 252.023 397.529, 251.611 400.500 C 251.199 403.471, 251.328 404.114, 252.111 403 C 252.894 401.886, 253.023 402.529, 252.611 405.500 C 252.199 408.471, 252.328 409.114, 253.111 408 C 253.894 406.886, 254.023 407.529, 253.611 410.500 C 253.203 413.446, 253.331 414.105, 254.099 413 C 254.895 411.855, 255.049 412.257, 254.752 414.697 C 254.537 416.456, 254.691 417.691, 255.092 417.443 C 256.152 416.788, 257.277 424.507, 256.515 427.208 C 255.991 429.066, 256.084 429.216, 257.005 428 C 257.913 426.802, 258.063 427.143, 257.752 429.697 C 257.519 431.609, 257.754 432.652, 258.337 432.292 C 258.943 431.917, 259.065 432.977, 258.657 435.095 C 258.261 437.155, 258.346 437.967, 258.873 437.149 C 259.972 435.443, 261.358 443.775, 260.441 446.576 C 259.980 447.984, 260.070 448.138, 260.777 447.149 C 261.969 445.481, 263.407 453.625, 262.441 456.576 C 261.910 458.198, 261.996 458.264, 262.988 457 C 263.926 455.805, 264.053 456.315, 263.611 459.500 C 263.199 462.471, 263.328 463.114, 264.111 462 C 264.894 460.886, 265.023 461.529, 264.611 464.500 C 264.199 467.474, 264.328 468.115, 265.113 467 C 265.903 465.877, 266.022 466.379, 265.586 469 C 265.251 471.008, 265.357 471.951, 265.834 471.211 C 266.913 469.539, 269.347 482.826, 268.458 485.533 C 267.915 487.183, 268.001 487.259, 268.988 486 C 269.926 484.805, 270.053 485.315, 269.611 488.500 C 269.286 490.847, 269.405 491.942, 269.900 491.149 C 270.972 489.431, 272.343 497.819, 271.441 500.576 C 270.910 502.198, 270.996 502.264, 271.988 501 C 272.926 499.805, 273.053 500.315, 272.611 503.500 C 272.287 505.835, 272.406 506.940, 272.897 506.154 C 273.928 504.501, 276.516 517.212, 275.623 519.541 C 275.238 520.544, 275.427 520.854, 276.150 520.407 C 276.949 519.914, 277.098 520.845, 276.662 523.605 C 276.195 526.565, 276.286 527.020, 277.042 525.500 C 277.814 523.947, 277.927 524.394, 277.547 527.500 C 277.275 529.714, 277.416 530.925, 277.861 530.211 C 278.941 528.482, 281.368 542.184, 280.517 545.203 C 280.072 546.782, 280.162 547.078, 280.805 546.151 C 282.016 544.405, 283.400 551.165, 282.446 554.169 C 282.041 555.446, 282.171 556.012, 282.783 555.634 C 284.042 554.856, 285.318 561.336, 284.488 564.294 C 283.980 566.103, 284.076 566.230, 285.017 565 C 285.919 563.822, 286.046 564.360, 285.611 567.500 C 285.199 570.471, 285.328 571.114, 286.111 570 C 286.894 568.886, 287.023 569.529, 286.611 572.500 C 286.199 575.471, 286.328 576.114, 287.111 575 C 287.894 573.886, 288.023 574.529, 287.611 577.500 C 287.199 580.471, 287.328 581.114, 288.111 580 C 288.894 578.886, 289.023 579.529, 288.611 582.500 C 288.275 584.923, 288.396 585.955, 288.918 585.119 C 290.055 583.298, 291.413 591.025, 290.515 594.208 C 289.989 596.075, 290.082 596.222, 291.017 595 C 291.919 593.822, 292.046 594.360, 291.611 597.500 C 291.199 600.471, 291.328 601.114, 292.111 600 C 292.894 598.886, 293.023 599.529, 292.611 602.500 C 292.287 604.835, 292.406 605.940, 292.897 605.154 C 294.027 603.342, 296.414 616.034, 295.531 619.159 C 294.994 621.059, 295.086 621.217, 296.017 620 C 296.919 618.822, 297.046 619.360, 296.611 622.500 C 296.199 625.471, 296.328 626.114, 297.111 625 C 297.894 623.886, 298.023 624.529, 297.611 627.500 C 297.199 630.471, 297.328 631.114, 298.111 630 C 298.894 628.886, 299.023 629.529, 298.611 632.500 C 298.230 635.248, 298.356 636.031, 299.013 635 C 299.943 633.541, 300.362 635.476, 300.354 641.200 C 300.353 642.135, 300.799 642.624, 301.346 642.286 C 301.939 641.919, 302.074 642.363, 301.681 643.388 C 301.319 644.332, 301.417 644.860, 301.898 644.563 C 303.031 643.863, 305.207 646.460, 304.272 647.395 C 303.881 647.786, 304.409 647.780, 305.445 647.383 C 306.680 646.909, 307.099 647.031, 306.663 647.737 C 306.235 648.429, 306.800 648.637, 308.249 648.320 C 309.606 648.022, 310.041 648.159, 309.344 648.663 C 308.709 649.123, 332.559 649.477, 362.344 649.450 C 392.130 649.422, 409.075 649.664, 400 649.987 L 383.500 650.575 404 650.717 C 416.616 650.805, 423.731 650.519, 422.500 649.974 C 421.087 649.348, 421.674 649.237, 424.500 649.594 C 431.927 650.534, 716.829 650.532, 716.248 649.592 C 715.940 649.093, 716.658 648.939, 717.845 649.249 C 719.032 649.560, 719.792 649.473, 719.535 649.057 C 719.278 648.642, 720.178 647.337, 721.534 646.157 C 722.890 644.978, 724 643.534, 724 642.948 C 724 642.361, 724.520 642.203, 725.155 642.595 C 725.847 643.023, 726.038 642.871, 725.633 642.215 C 725.261 641.614, 725.255 639.257, 725.619 636.979 C 726.063 634.206, 726.556 633.277, 727.112 634.169 C 727.589 634.933, 727.707 633.796, 727.389 631.500 C 726.970 628.477, 727.098 627.866, 727.916 629 C 728.735 630.136, 728.839 629.675, 728.343 627.095 C 727.935 624.977, 728.057 623.917, 728.663 624.292 C 729.249 624.654, 729.457 623.662, 729.185 621.805 C 728.874 619.687, 729.084 618.934, 729.854 619.410 C 730.573 619.854, 730.761 619.541, 730.377 618.540 C 730.047 617.679, 730.091 614.880, 730.475 612.319 C 730.994 608.860, 731.425 608.027, 732.152 609.081 C 732.864 610.113, 732.955 609.875, 732.485 608.208 C 731.587 605.025, 732.945 597.298, 734.082 599.119 C 734.604 599.955, 734.725 598.923, 734.389 596.500 C 733.966 593.448, 734.094 592.856, 734.931 594 C 735.761 595.134, 735.883 594.402, 735.433 591 C 734.997 587.699, 735.119 586.900, 735.891 588 C 736.671 589.113, 736.800 588.467, 736.389 585.500 C 735.977 582.529, 736.106 581.886, 736.889 583 C 737.672 584.114, 737.801 583.471, 737.389 580.500 C 736.977 577.529, 737.106 576.886, 737.889 578 C 738.672 579.114, 738.801 578.471, 738.389 575.500 C 737.977 572.529, 738.106 571.886, 738.889 573 C 739.672 574.114, 739.801 573.471, 739.389 570.500 C 738.977 567.529, 739.106 566.886, 739.889 568 C 740.672 569.114, 740.801 568.471, 740.389 565.500 C 739.977 562.529, 740.106 561.886, 740.889 563 C 741.668 564.108, 741.779 563.480, 741.316 560.595 C 740.880 557.882, 741.023 556.896, 741.785 557.367 C 742.534 557.830, 742.736 556.849, 742.422 554.272 C 742.064 551.329, 742.178 550.940, 742.938 552.500 C 743.660 553.984, 743.773 553.338, 743.375 550 C 742.980 546.683, 743.115 545.894, 743.891 547 C 744.671 548.113, 744.800 547.467, 744.389 544.500 C 743.954 541.360, 744.081 540.822, 744.983 542 C 745.922 543.227, 746.017 543.093, 745.502 541.263 C 744.611 538.094, 746.007 529.409, 747.127 531.149 C 747.661 531.978, 747.772 531.149, 747.414 529 C 746.978 526.379, 747.097 525.877, 747.887 527 C 748.668 528.109, 748.780 527.483, 748.316 524.595 C 747.936 522.232, 748.062 520.920, 748.635 521.274 C 749.183 521.613, 749.459 520.311, 749.289 518.180 C 749.054 515.231, 749.186 514.897, 749.954 516.500 C 750.655 517.963, 750.768 517.293, 750.375 514 C 749.950 510.435, 750.083 509.812, 751.014 511 C 752.003 512.264, 752.089 512.197, 751.559 510.576 C 750.657 507.819, 752.028 499.431, 753.100 501.149 C 753.595 501.942, 753.714 500.847, 753.389 498.500 C 752.977 495.529, 753.106 494.886, 753.889 496 C 754.672 497.114, 754.801 496.471, 754.389 493.500 C 753.992 490.635, 754.122 489.911, 754.849 490.948 C 755.577 491.988, 755.737 491.141, 755.416 487.948 C 755.078 484.589, 755.206 483.990, 755.940 485.500 C 756.659 486.980, 756.772 486.331, 756.375 483 C 755.980 479.683, 756.115 478.894, 756.891 480 C 757.671 481.113, 757.800 480.467, 757.389 477.500 C 756.977 474.529, 757.106 473.886, 757.889 475 C 758.672 476.114, 758.801 475.471, 758.389 472.500 C 757.954 469.360, 758.081 468.822, 758.983 470 C 759.918 471.222, 760.011 471.075, 759.485 469.208 C 758.544 465.873, 759.945 458.341, 761.176 460.119 C 761.850 461.094, 761.940 460.824, 761.483 459.203 C 760.632 456.184, 763.059 442.482, 764.139 444.211 C 764.581 444.920, 764.694 443.700, 764.389 441.500 C 763.977 438.529, 764.106 437.886, 764.889 439 C 765.672 440.114, 765.801 439.471, 765.389 436.500 C 764.977 433.529, 765.106 432.886, 765.889 434 C 766.672 435.114, 766.801 434.471, 766.389 431.500 C 765.977 428.529, 766.106 427.886, 766.889 429 C 767.672 430.114, 767.801 429.471, 767.389 426.500 C 766.992 423.635, 767.122 422.911, 767.849 423.948 C 768.573 424.982, 768.717 424.124, 768.352 420.948 C 767.968 417.604, 768.108 416.872, 768.919 418 C 769.734 419.134, 769.838 418.669, 769.343 416.095 C 768.890 413.740, 769.026 412.898, 769.785 413.367 C 770.538 413.833, 770.718 412.864, 770.358 410.272 C 769.966 407.451, 770.100 406.878, 770.889 408 C 771.672 409.114, 771.801 408.471, 771.389 405.500 C 770.954 402.360, 771.081 401.822, 771.983 403 C 772.918 404.222, 773.011 404.075, 772.485 402.208 C 771.587 399.025, 772.945 391.298, 774.082 393.119 C 774.604 393.955, 774.725 392.923, 774.389 390.500 C 774.079 388.262, 774.201 387.009, 774.667 387.655 C 775.153 388.330, 775.505 386.664, 775.512 383.655 C 775.519 380.820, 775.744 377.881, 776.012 377.125 C 776.341 376.199, 775.626 375.699, 773.827 375.595 C 772.357 375.510, 771.371 375.792, 771.636 376.220 C 772.063 376.912, 771.154 377.190, 769.407 376.902 C 768.365 376.731, 763.053 382.276, 763.525 383.041 C 763.775 383.445, 761.959 385.431, 759.490 387.455 C 757.020 389.478, 755 390.787, 755 390.364 C 755 389.941, 753.219 391.334, 751.041 393.460 C 748.864 395.586, 747.296 397.671, 747.558 398.093 C 748.097 398.966, 738.542 407.501, 737.705 406.894 C 736.927 406.330, 731.976 411.152, 732.486 411.977 C 733.177 413.095, 723.449 422.135, 721.911 421.804 C 721.135 421.637, 720.593 422.003, 720.706 422.617 C 720.819 423.232, 719.697 424.807, 718.213 426.117 L 715.514 428.500 717.507 426 L 719.500 423.500 717.274 425.384 C 716.049 426.420, 715.262 427.615, 715.525 428.040 C 716.061 428.907, 706.540 437.206, 705.826 436.493 C 705.575 436.242, 703.599 437.941, 701.435 440.268 L 697.500 444.500 701.559 441 C 703.792 439.075, 701.321 441.622, 696.068 446.660 C 690.815 451.698, 686.244 455.651, 685.911 455.445 C 685.088 454.936, 679.835 460.501, 680.505 461.172 C 681.221 461.887, 667.900 474.056, 667.007 473.504 C 666.621 473.266, 665 474.518, 663.403 476.286 L 660.500 479.500 664 476.502 L 667.500 473.504 664.092 477.213 C 662.217 479.253, 660.235 480.645, 659.687 480.307 C 659.139 479.968, 658.967 480.137, 659.304 480.683 C 660.050 481.890, 652.925 489.041, 650.643 489.376 C 648.576 489.680, 642.909 495.044, 643.554 496.088 C 644.087 496.949, 635.240 504.710, 634.361 504.152 C 633.587 503.661, 627.986 509.169, 628.468 509.948 C 628.991 510.795, 621.154 518.388, 618.129 519.964 C 616.602 520.760, 616 520.809, 616.438 520.100 C 616.812 519.495, 616.593 519, 615.952 519 C 615.309 519, 615.053 518.304, 615.382 517.448 C 615.771 516.434, 615.575 516.144, 614.819 516.612 C 614.038 517.095, 613.875 516.769, 614.319 515.612 C 614.762 514.456, 614.599 514.130, 613.819 514.612 C 613.038 515.095, 612.875 514.769, 613.319 513.612 C 613.710 512.593, 613.576 512.144, 612.989 512.507 C 612.051 513.087, 611.832 512.653, 611.600 509.750 C 611.545 509.063, 610.678 507.678, 609.673 506.673 C 608.668 505.668, 608.100 504.182, 608.411 503.371 C 608.775 502.424, 608.562 502.152, 607.819 502.612 C 607.038 503.095, 606.875 502.769, 607.319 501.612 C 607.762 500.456, 607.599 500.130, 606.819 500.612 C 606.038 501.095, 605.875 500.769, 606.319 499.612 C 606.762 498.456, 606.599 498.130, 605.819 498.612 C 605.038 499.095, 604.875 498.769, 605.319 497.612 C 605.681 496.668, 605.579 496.142, 605.093 496.442 C 604.027 497.101, 602.762 494.194, 603.556 492.910 C 603.865 492.409, 603.566 492, 602.892 492 C 602.218 492, 601.929 491.737, 602.250 491.417 C 602.571 491.096, 601.936 489.936, 600.839 488.839 C 599.743 487.743, 599.100 486.182, 599.411 485.371 C 599.775 484.424, 599.562 484.152, 598.819 484.612 C 598.038 485.095, 597.875 484.769, 598.319 483.612 C 598.762 482.456, 598.599 482.130, 597.819 482.612 C 597.038 483.095, 596.875 482.769, 597.319 481.612 C 597.710 480.593, 597.576 480.144, 596.989 480.507 C 596.051 481.087, 595.832 480.653, 595.600 477.750 C 595.545 477.063, 595.251 476.275, 594.947 476 C 593.310 474.519, 589.940 467.906, 590.424 467.123 C 590.734 466.621, 590.285 465.940, 589.425 465.610 C 588.350 465.197, 588.073 464.345, 588.538 462.880 C 588.953 461.573, 588.831 460.986, 588.223 461.362 C 587.106 462.053, 584.368 456.229, 584.832 454.150 C 584.998 453.407, 584.701 453.067, 584.172 453.394 C 582.977 454.132, 581.754 451.207, 582.651 449.755 C 583.069 449.079, 582.826 448.990, 581.985 449.510 C 581.015 450.109, 580.836 449.868, 581.319 448.612 C 581.762 447.456, 581.599 447.130, 580.819 447.612 C 580.038 448.095, 579.875 447.769, 580.319 446.612 C 580.762 445.456, 580.599 445.130, 579.819 445.612 C 579.038 446.095, 578.875 445.769, 579.319 444.612 C 579.762 443.456, 579.599 443.130, 578.819 443.612 C 578.038 444.095, 577.875 443.769, 578.319 442.612 C 578.762 441.456, 578.599 441.130, 577.819 441.612 C 577.038 442.095, 576.875 441.769, 577.319 440.612 C 577.762 439.456, 577.599 439.130, 576.819 439.612 C 576.038 440.095, 575.875 439.769, 576.319 438.612 C 576.762 437.456, 576.599 437.130, 575.819 437.612 C 575.038 438.095, 574.875 437.769, 575.319 436.612 C 575.762 435.456, 575.599 435.130, 574.819 435.612 C 574.038 436.095, 573.875 435.769, 574.319 434.612 C 574.762 433.456, 574.599 433.130, 573.819 433.612 C 573.038 434.095, 572.875 433.769, 573.319 432.612 C 573.762 431.456, 573.599 431.130, 572.819 431.612 C 572.038 432.095, 571.875 431.769, 572.319 430.612 C 572.762 429.456, 572.599 429.130, 571.819 429.612 C 571.038 430.095, 570.875 429.769, 571.319 428.612 C 571.762 427.456, 571.599 427.130, 570.819 427.612 C 570.038 428.095, 569.875 427.769, 570.319 426.612 C 570.762 425.456, 570.599 425.130, 569.819 425.612 C 569.038 426.095, 568.875 425.769, 569.319 424.612 C 569.762 423.456, 569.599 423.130, 568.819 423.612 C 568.038 424.095, 567.875 423.769, 568.319 422.612 C 568.762 421.456, 568.599 421.130, 567.819 421.612 C 567.038 422.095, 566.875 421.769, 567.319 420.612 C 567.762 419.456, 567.599 419.130, 566.819 419.612 C 566.038 420.095, 565.875 419.769, 566.319 418.612 C 566.762 417.456, 566.599 417.130, 565.819 417.612 C 565.038 418.095, 564.875 417.769, 565.319 416.612 C 565.762 415.456, 565.599 415.130, 564.819 415.612 C 564.038 416.095, 563.875 415.769, 564.319 414.612 C 564.762 413.456, 564.599 413.130, 563.819 413.612 C 563.038 414.095, 562.875 413.769, 563.319 412.612 C 563.762 411.456, 563.599 411.130, 562.819 411.612 C 562.038 412.095, 561.875 411.769, 562.319 410.612 C 562.762 409.456, 562.599 409.130, 561.819 409.612 C 561.038 410.095, 560.875 409.769, 561.319 408.612 C 561.762 407.456, 561.599 407.130, 560.819 407.612 C 560.038 408.095, 559.875 407.769, 560.319 406.612 C 560.762 405.456, 560.599 405.130, 559.819 405.612 C 559.038 406.095, 558.875 405.769, 559.319 404.612 C 559.762 403.456, 559.599 403.130, 558.819 403.612 C 558.038 404.095, 557.875 403.769, 558.319 402.612 C 558.762 401.456, 558.599 401.130, 557.819 401.612 C 557.038 402.095, 556.875 401.769, 557.319 400.612 C 557.762 399.456, 557.599 399.130, 556.819 399.612 C 556.038 400.095, 555.875 399.769, 556.319 398.612 C 556.762 397.456, 556.599 397.130, 555.819 397.612 C 555.038 398.095, 554.875 397.769, 555.319 396.612 C 555.762 395.456, 555.599 395.130, 554.819 395.612 C 554.038 396.095, 553.875 395.769, 554.319 394.612 C 554.762 393.456, 554.599 393.130, 553.819 393.612 C 553.038 394.095, 552.875 393.769, 553.319 392.612 C 553.762 391.456, 553.599 391.130, 552.819 391.612 C 552.038 392.095, 551.875 391.769, 552.319 390.612 C 552.762 389.456, 552.599 389.130, 551.819 389.612 C 551.038 390.095, 550.875 389.769, 551.319 388.612 C 551.762 387.456, 551.599 387.130, 550.819 387.612 C 550.038 388.095, 549.875 387.769, 550.319 386.612 C 550.762 385.456, 550.599 385.130, 549.819 385.612 C 549.038 386.095, 548.875 385.769, 549.319 384.612 C 549.762 383.456, 549.599 383.130, 548.819 383.612 C 548.038 384.095, 547.875 383.769, 548.319 382.612 C 548.762 381.456, 548.599 381.130, 547.819 381.612 C 547.038 382.095, 546.875 381.769, 547.319 380.612 C 547.762 379.456, 547.599 379.130, 546.819 379.612 C 546.038 380.095, 545.875 379.769, 546.319 378.612 C 546.762 377.456, 546.599 377.130, 545.819 377.612 C 545.038 378.095, 544.875 377.769, 545.319 376.612 C 545.762 375.456, 545.599 375.130, 544.819 375.612 C 544.038 376.095, 543.875 375.769, 544.319 374.612 C 544.762 373.456, 544.599 373.130, 543.819 373.612 C 543.038 374.095, 542.875 373.769, 543.319 372.612 C 543.762 371.456, 543.599 371.130, 542.819 371.612 C 542.038 372.095, 541.875 371.769, 542.319 370.612 C 542.681 369.668, 542.579 369.142, 542.093 369.442 C 541.027 370.101, 539.762 367.194, 540.556 365.910 C 540.865 365.409, 540.566 365, 539.892 365 C 539.218 365, 538.940 364.727, 539.273 364.394 C 539.607 364.060, 538.996 362.838, 537.915 361.679 C 536.835 360.519, 536.173 358.992, 536.444 358.285 C 536.715 357.578, 536.551 357, 536.079 357 C 534.759 357, 530.853 348.047, 531.626 346.796 C 532.014 346.168, 531.855 345.971, 531.259 346.340 C 529.999 347.119, 528.719 344.264, 529.651 342.755 C 530.069 342.079, 529.826 341.990, 528.985 342.510 C 528.015 343.109, 527.836 342.868, 528.319 341.612 C 528.762 340.456, 528.599 340.130, 527.819 340.612 C 527.038 341.095, 526.875 340.769, 527.319 339.612 C 527.762 338.456, 527.599 338.130, 526.819 338.612 C 526.038 339.095, 525.875 338.769, 526.319 337.612 C 526.762 336.456, 526.599 336.130, 525.819 336.612 C 525.038 337.095, 524.875 336.769, 525.319 335.612 C 525.762 334.456, 525.599 334.130, 524.819 334.612 C 524.038 335.095, 523.875 334.769, 524.319 333.612 C 524.762 332.456, 524.599 332.130, 523.819 332.612 C 523.038 333.095, 522.875 332.769, 523.319 331.612 C 523.762 330.456, 523.599 330.130, 522.819 330.612 C 522.038 331.095, 521.875 330.769, 522.319 329.612 C 522.762 328.456, 522.599 328.130, 521.819 328.612 C 521.038 329.095, 520.875 328.769, 521.319 327.612 C 521.681 326.668, 521.579 326.142, 521.093 326.442 C 519.957 327.145, 518.787 324.154, 519.651 322.755 C 520.013 322.170, 519.847 321.976, 519.283 322.325 C 518.707 322.681, 517.504 320.989, 516.541 318.468 C 515.598 315.998, 513.995 313.532, 512.979 312.989 C 510.924 311.889, 510.062 311.753, 509.875 312.500 M 570.768 651.725 C 572.565 651.947, 575.265 651.943, 576.768 651.715 C 578.271 651.486, 576.800 651.304, 573.500 651.310 C 570.200 651.315, 568.971 651.502, 570.768 651.725 M 613.823 651.750 C 632.150 651.902, 661.850 651.902, 679.823 651.749 C 697.795 651.597, 682.800 651.472, 646.500 651.472 C 610.200 651.472, 595.495 651.597, 613.823 651.750 M 360.326 678.750 C 388.281 678.898, 433.731 678.898, 461.326 678.750 C 488.922 678.602, 466.050 678.481, 410.500 678.481 C 354.950 678.481, 332.372 678.602, 360.326 678.750 M 307.760 680.420 C 308.084 680.945, 307.519 681.030, 306.445 680.617 C 305.409 680.220, 304.889 680.222, 305.290 680.623 C 305.690 681.024, 305.002 682.432, 303.759 683.753 C 301.627 686.019, 301.472 687.183, 301 704.484 C 300.699 715.523, 300.866 722.587, 301.420 722.243 C 301.945 721.917, 302.030 722.480, 301.617 723.555 C 301.220 724.591, 301.214 725.119, 301.605 724.728 C 302.540 723.793, 305.137 725.969, 304.437 727.102 C 304.140 727.583, 304.668 727.681, 305.612 727.319 C 306.760 726.878, 307.094 727.040, 306.620 727.806 C 306.088 728.667, 356.738 728.961, 509.570 728.988 C 621.582 729.007, 713.697 729.313, 714.269 729.666 C 714.917 730.067, 715.003 729.815, 714.498 728.997 C 713.896 728.023, 714.233 727.828, 715.809 728.240 C 717.001 728.551, 717.837 728.346, 717.716 727.772 C 717.597 727.210, 718.125 726.523, 718.889 726.245 C 719.845 725.898, 720.029 726.171, 719.479 727.120 C 719.039 727.879, 719.061 728.153, 719.527 727.730 C 720.942 726.443, 721.245 723.220, 721.674 704.877 L 722.085 687.255 719.571 684.266 C 718.187 682.622, 717.367 680.966, 717.747 680.586 C 718.128 680.206, 717.591 680.220, 716.555 680.617 C 715.481 681.030, 714.916 680.945, 715.240 680.420 C 715.586 679.861, 635.598 679.500, 511.500 679.500 C 387.402 679.500, 307.414 679.861, 307.760 680.420 M 723.407 704 C 723.407 713.075, 723.559 716.788, 723.744 712.250 C 723.929 707.712, 723.929 700.288, 723.744 695.750 C 723.559 691.212, 723.407 694.925, 723.407 704 M 299.395 705.500 C 299.396 713.200, 299.553 716.218, 299.743 712.206 C 299.934 708.195, 299.932 701.895, 299.741 698.206 C 299.549 694.518, 299.393 697.800, 299.395 705.500" stroke="none" fill="#dbb25c" fill-rule="evenodd"/></svg>