<svg xmlns="http://www.w3.org/2000/svg" width="1024" height="1024" viewBox="0 0 1024 1024">
<g>
<path d="M 502.50 876.30 C443.47,871.00 388.65,850.19 342.58,815.58 C282.81,770.69 246.08,710.91 235.33,641.00 C233.96,632.15 233.57,623.63 233.62,604.00 C233.67,581.07 233.94,577.04 236.28,564.00 C245.14,514.65 265.90,473.72 306.06,426.47 C318.99,411.27 350.00,380.48 371.50,361.53 C449.42,292.82 482.19,242.71 490.47,179.60 C491.31,173.16 492.00,163.20 492.00,157.45 C492.00,151.70 492.25,147.00 492.56,147.00 C492.86,147.00 497.03,148.62 501.81,150.59 C533.02,163.49 560.73,182.54 585.50,208.13 C630.59,254.70 653.00,310.87 653.00,377.28 C653.00,408.80 648.24,435.49 637.38,464.89 C633.22,476.15 622.87,497.73 617.19,507.00 C614.99,510.58 613.34,513.65 613.51,513.83 C614.27,514.63 629.60,508.41 641.50,502.48 C657.98,494.27 670.47,485.30 683.95,472.00 C698.15,457.98 707.74,445.55 720.39,424.73 L 722.07 421.96 L 729.75 432.23 C757.33,469.13 776.67,511.41 785.01,553.00 C788.88,572.30 789.97,581.41 790.68,600.50 C793.03,663.31 772.18,726.17 732.77,775.12 C723.55,786.57 699.56,810.15 688.00,819.11 C644.67,852.73 600.15,870.70 547.14,875.97 C537.50,876.93 511.61,877.12 502.50,876.30 ZM 577.03 825.75 C598.29,800.38 616.67,763.21 622.67,733.41 C625.15,721.08 625.17,693.23 622.70,684.12 C615.46,657.40 603.66,643.76 567.96,620.90 C533.20,598.64 517.97,584.28 507.60,564.01 C499.12,547.41 496.57,536.01 496.56,514.50 C496.54,498.37 498.43,485.55 502.50,473.99 C503.28,471.79 503.66,470.00 503.36,470.00 C502.19,470.00 484.25,481.01 479.08,484.90 C462.63,497.28 446.51,514.91 432.80,535.50 C412.41,566.13 400.78,600.62 397.81,639.24 C393.78,691.65 410.47,746.99 440.16,779.67 C454.13,795.05 469.98,807.11 486.72,815.11 C508.09,825.30 538.92,832.46 563.23,832.87 L 570.95 833.00 L 577.03 825.75 Z" fill="rgba(248,54,52,1)"/>
</g>
</svg>